<?xml version="1.0" standalone="no"?>
<!DOCTYPE svg PUBLIC "-//W3C//DTD SVG 1.1//EN" "http://www.w3.org/Graphics/SVG/1.1/DTD/svg11.dtd" >
<svg xmlns="http://www.w3.org/2000/svg">
<metadata></metadata>
<defs>
<font id="prelo_slab_hairlinehairline" horiz-adv-x="1024" >
<font-face units-per-em="2048" ascent="1536" descent="-512" />
<missing-glyph horiz-adv-x="368" />
<glyph unicode="&#xfb01;" horiz-adv-x="1095" d="M61 1004v16l185 4v82q0 328 307 328q45 0 127.5 -16t169.5 -56l-10 -21q-165 72 -287 72q-151 0 -219 -76.5t-68 -230.5v-82h604v-1004h164v-20h-348v20h164v984h-584v-984h205v-20h-389v20h164v984h-185z" />
<glyph unicode="&#xfb02;" horiz-adv-x="1095" d="M61 1004v16l185 4v82q0 328 307 328q45 0 127.5 -16t169.5 -56h20v-1342h164v-20h-348v20h164v1317q-173 76 -297 76q-151 0 -219 -76.5t-68 -230.5v-82h348v-20h-348v-984h205v-20h-389v20h164v984h-185z" />
<glyph unicode="&#xfb03;" horiz-adv-x="1699" d="M61 1004v16l185 4v82q0 97 15 161t47 100.5t76 51.5t108 15q47 0 133 -11l-4 -20q-71 10 -129 10q-131 0 -178.5 -73t-47.5 -234v-82h584v82q0 328 307 328q45 0 127.5 -16t169.5 -56l-10 -21q-165 72 -287 72q-151 0 -219 -76.5t-68 -230.5v-82h605v-1004h163v-20h-348 v20h164v984h-584v-984h205v-20h-389v20h164v984h-584v-984h205v-20h-389v20h164v984h-185z" />
<glyph unicode="&#xfb04;" horiz-adv-x="1699" d="M61 1004v16l185 4v82q0 97 15 161t47 100.5t76 51.5t108 15q47 0 133 -11l-4 -20q-71 10 -129 10q-131 0 -178.5 -73t-47.5 -234v-82h584v82q0 328 307 328q45 0 127.5 -16t169.5 -56h21v-1342h163v-20h-348v20h164v1317q-173 76 -297 76q-151 0 -219 -76.5t-68 -230.5 v-82h349v-20h-349v-984h205v-20h-389v20h164v984h-584v-984h205v-20h-389v20h164v984h-185z" />
<glyph horiz-adv-x="2048" />
<glyph horiz-adv-x="2048" />
<glyph unicode="&#xd;" horiz-adv-x="2048" />
<glyph unicode=" "  horiz-adv-x="368" />
<glyph unicode="&#x09;" horiz-adv-x="368" />
<glyph unicode="&#xa0;" horiz-adv-x="368" />
<glyph unicode="!" horiz-adv-x="348" d="M164 0v205h20v-205h-20zM164 451v983h20v-983h-20z" />
<glyph unicode="&#x22;" horiz-adv-x="757" d="M164 1188v205h20v-205h-20zM573 1188v205h21v-205h-21z" />
<glyph unicode="#" horiz-adv-x="1255" d="M174 287l2 20h205l43 410h-205l2 20h205l31 287h20l-31 -287h410l31 287h20l-30 -287h204l-2 -20h-205l-43 -410h205l-2 -20h-205l-30 -287h-21l31 287h-410l-30 -287h-21l31 287h-205zM401 307h410l43 410h-410z" />
<glyph unicode="$" horiz-adv-x="1269" d="M184 41v205h21v-189q221 -57 430 -57q95 0 170.5 21.5t123 56.5t79 81.5t44.5 93t13 95.5q0 51 -16.5 95.5t-40 76t-62 59.5t-70.5 44.5t-77.5 33t-70.5 23.5t-62 16q-83 18 -157 47t-146 74.5t-115 114.5t-43 153q0 112 55.5 186.5t147.5 107.5t217 34v184h20v-184 q210 -3 420 -61v-205h-21v188q-234 58 -409 58q-95 0 -168 -17.5t-118 -46t-73.5 -69.5t-39.5 -83.5t-11 -91.5q0 -51 18.5 -96.5t46.5 -79t69.5 -63t79.5 -49t85.5 -37t77.5 -26.5t64 -17q419 -91 419 -369q0 -171 -120.5 -268t-319.5 -100v-185h-20v185q-246 3 -441 61z " />
<glyph unicode="%" horiz-adv-x="1556" d="M123 1096q0 120 65 188t185 68t185 -68t65 -188t-65 -188t-185 -68t-185 68t-65 188zM139 1096q0 -113 60.5 -177.5t173.5 -64.5t173 64.5t60 177.5t-60 177t-173 64t-173.5 -64.5t-60.5 -176.5zM389 0l758 1393h20l-757 -1393h-21zM934 297q0 120 65 188t185 68t185 -68 t65 -188t-65 -188t-185 -68t-185 68t-65 188zM950 297q0 -113 60.5 -177.5t173.5 -64.5t173 64.5t60 177.5t-60 177.5t-173 64.5t-173.5 -64.5t-60.5 -177.5z" />
<glyph unicode="&#x26;" horiz-adv-x="1443" d="M154 338q0 130 85.5 228t295.5 182l-32.5 32.5t-46 47t-44 54t-43.5 67.5t-28 73t-13 84q0 79 29.5 140t78.5 96.5t107.5 53t122.5 17.5q142 0 224.5 -71.5t82.5 -204.5q0 -53 -19 -100t-63 -97.5t-125 -101t-197 -99.5l523 -522q161 179 208 500h21q-44 -321 -215 -516 l194 -201l-16 -16l-192 200q-191 -204 -508 -204q-209 0 -319.5 97t-110.5 261zM174 338q0 -39 7.5 -76.5t34.5 -87.5t71 -86.5t126 -62t191 -25.5q127 0 251 48.5t222 152.5l-526 530q-68 -28 -111.5 -48.5t-99.5 -57t-88 -73.5t-55 -92.5t-23 -121.5zM348 1110 q0 -51 15 -97.5t50 -94t61.5 -77.5t80.5 -85q83 33 147 68t123.5 81.5t92 105.5t32.5 126q0 57 -16.5 102t-44.5 71.5t-57.5 44.5t-65 25.5t-57.5 10t-43 2.5q-79 0 -139.5 -23t-93 -56t-53 -75t-26.5 -72.5t-6 -56.5z" />
<glyph unicode="'" horiz-adv-x="348" d="M164 1188v205h20v-205h-20z" />
<glyph unicode="(" horiz-adv-x="675" d="M195 696q0 247 89.5 505t243.5 478h25q-172 -266 -255 -503.5t-83 -479.5t83 -479.5t255 -503.5h-25q-154 220 -243.5 478t-89.5 505z" />
<glyph unicode=")" horiz-adv-x="675" d="M123 -287q172 266 255 503.5t83 479.5t-83 479.5t-255 503.5h24q155 -221 244.5 -479t89.5 -504t-89.5 -504t-244.5 -479h-24z" />
<glyph unicode="*" horiz-adv-x="839" d="M88 1153l6 21l316 -62v281h20v-281l313 62l7 -21l-318 -61l205 -269l-16 -12l-203 266l-201 -266l-16 12l205 269z" />
<glyph unicode="+" d="M164 532v21h338v338h20v-338h338v-21h-338v-337h-20v337h-338z" />
<glyph unicode="," horiz-adv-x="348" d="M143 -266l21 266v205h20v-205l-20 -266h-21z" />
<glyph unicode="-" d="M164 532v21h696v-21h-696z" />
<glyph unicode="." horiz-adv-x="348" d="M164 0v205h20v-205h-20z" />
<glyph unicode="/" horiz-adv-x="1105" d="M164 0l758 1393h20l-758 -1393h-20z" />
<glyph unicode="0" horiz-adv-x="1167" d="M143 707q0 706 441 706q440 0 440 -706q0 -727 -440 -727q-441 0 -441 727zM164 707q0 -707 420 -707t420 707q0 686 -420 686t-420 -686z" />
<glyph unicode="1" horiz-adv-x="798" d="M61 0v20h287v1362l-266 -36v16l276 41h11v-1383h286v-20h-594z" />
<glyph unicode="2" horiz-adv-x="1085" d="M123 0v31q194 135 339 267.5t222.5 232.5t124.5 197t59.5 157.5t12.5 118.5q0 99 -29.5 173.5t-70.5 114t-96 64t-95 31t-78 6.5q-95 0 -181.5 -20.5t-187.5 -74.5v-172h-20v185q97 50 188 76t201 26q100 0 176.5 -33t122 -90t68 -126.5t22.5 -149.5q0 -462 -747 -989v-5 h768v185h20v-205h-819z" />
<glyph unicode="3" horiz-adv-x="1064" d="M102 72v194h21v-182q150 -84 379 -84q83 0 149.5 14.5t109.5 36.5t74.5 54.5t47.5 62t25.5 67t11.5 61.5t2 52q0 69 -25.5 128t-77.5 107t-141.5 75.5t-206.5 27.5h-154v21h154q184 0 298 104t114 244q0 40 -6.5 78.5t-30 88t-62.5 85.5t-112 61t-170 25q-184 0 -338 -84 v-183h-21v195q72 43 168 67.5t191 24.5q202 0 300.5 -95t98.5 -263q0 -138 -90 -231t-217 -124v-4q155 -18 251.5 -111t96.5 -237q0 -177 -108 -272.5t-332 -95.5q-114 0 -222 23.5t-178 68.5z" />
<glyph unicode="4" horiz-adv-x="1167" d="M123 430v21q192 210 376.5 466.5t288.5 485.5h31v-952h225v-21h-225v-410h164v-20h-348v20h164v410h-676zM150 451h649v921h-4q-108 -225 -279.5 -465.5t-365.5 -455.5z" />
<glyph unicode="5" horiz-adv-x="1105" d="M123 82v184h20v-174q101 -52 187.5 -72t181.5 -20q191 0 310.5 112t119.5 318q0 59 -11.5 114t-39.5 107.5t-70 91.5t-108.5 62.5t-149.5 23.5q-218 0 -358 -208l-25 4l45 768h676v-207h-20v186h-637l-45 -721l4 -2q59 90 151.5 145.5t208.5 55.5q190 0 295 -113 t105 -307q0 -210 -124 -330t-327 -120q-110 0 -201 26t-188 76z" />
<glyph unicode="6" horiz-adv-x="1126" d="M143 614q0 174 27.5 311t75 227.5t115.5 150t145 85t168 25.5q24 0 47 -1t40.5 -2.5t37 -5t31.5 -5.5t30.5 -6.5t26.5 -7t27 -8t26 -7.5v-182h-20v168q-132 37 -246 37q-469 0 -510 -711l4 -2q73 117 175 184.5t220 67.5q200 0 310 -125.5t110 -355.5q0 -215 -116 -343 t-287 -128q-108 0 -188.5 36.5t-127 94t-74.5 143.5t-37.5 170.5t-9.5 189.5zM164 641q-1 -109 7.5 -196t35 -173t71 -143.5t119.5 -93t176 -35.5q78 0 147.5 30t124 85t86.5 142t32 194q0 65 -9.5 124.5t-37 122.5t-71 108.5t-116.5 75t-168 29.5q-117 0 -221.5 -75 t-175.5 -195z" />
<glyph unicode="7" horiz-adv-x="1003" d="M143 1188v205h738v-21q-125 -194 -238 -406t-216 -478.5t-140 -487.5h-21q42 295 222 689.5t368 678.5v4h-692v-184h-21z" />
<glyph unicode="8" horiz-adv-x="1126" d="M123 338q0 65 23.5 121t60.5 95.5t93 74.5t110 57.5t122 44.5v4q-83 25 -145 55t-115 71.5t-80.5 99.5t-27.5 129q0 146 105.5 234.5t293.5 88.5t294 -88.5t106 -234.5q0 -58 -18.5 -105.5t-48.5 -82t-80 -66t-100 -53.5t-122 -48v-4q73 -26 126 -49t110 -58t92.5 -73.5 t58.5 -93t23 -119.5q0 -162 -110 -260t-331 -98t-330.5 98t-109.5 260zM143 338q0 -54 13 -102t44 -92t78 -75.5t120 -50t165 -18.5t165 18.5t120 50t78 75.5t44 92t13 102q0 46 -13 87t-33 72.5t-54.5 61t-66.5 50.5t-80 43.5t-84 36.5t-89 34q-71 -23 -123.5 -45 t-112 -56.5t-97 -72.5t-62.5 -92.5t-25 -118.5zM184 1085q0 -68 28 -122.5t82 -94.5t118 -69t151 -54q71 24 122 45.5t102.5 51.5t83 63.5t51.5 79.5t20 100q0 64 -19 115t-52.5 83.5t-71.5 55t-83.5 34t-81.5 16t-71 4.5t-71 -4.5t-81.5 -16t-83.5 -34t-71.5 -55 t-52.5 -83.5t-19 -115z" />
<glyph unicode="9" horiz-adv-x="1126" d="M143 942q0 215 116 343t288 128q78 0 141.5 -19t108 -51t78.5 -80t54 -100.5t32.5 -119.5t17 -129t4.5 -136q0 -174 -27.5 -310.5t-74.5 -227t-115 -150t-145 -85t-168 -25.5q-28 0 -52 1t-48 4.5t-38 5t-37.5 7.5t-30 7.5t-33 9t-28.5 8.5v182h21v-168q121 -37 246 -37 q469 0 510 711l-5 2q-73 -117 -175 -184.5t-220 -67.5q-200 0 -310 125.5t-110 355.5zM164 942q0 -65 9.5 -124.5t37 -123t70.5 -109t116 -75t168 -29.5q117 0 222 75.5t176 195.5q1 76 -3 141t-15.5 132t-31.5 120t-51.5 100.5t-74 79t-102 50t-132.5 18.5 q-78 0 -147.5 -30t-123.5 -85.5t-86 -142t-32 -193.5z" />
<glyph unicode=":" horiz-adv-x="348" d="M164 0v205h20v-205h-20zM164 737v205h20v-205h-20z" />
<glyph unicode=";" horiz-adv-x="348" d="M143 -266l21 266v205h20v-205l-20 -266h-21zM164 737v205h20v-205h-20z" />
<glyph unicode="&#x3c;" horiz-adv-x="983" d="M164 502v20l655 338v-20l-635 -328l635 -328v-20z" />
<glyph unicode="=" d="M164 328v20h696v-20h-696zM164 737v21h696v-21h-696z" />
<glyph unicode="&#x3e;" horiz-adv-x="983" d="M164 164v20l635 328l-635 328v20l655 -338v-20z" />
<glyph unicode="?" horiz-adv-x="983" d="M143 1147v190q196 76 338 76q83 0 147.5 -19.5t103.5 -51t64 -75.5t34.5 -88t9.5 -94q0 -79 -23.5 -142.5t-61.5 -104t-84 -73.5t-92 -60.5t-84 -56t-61.5 -68t-23.5 -88.5v-62h-21v62q0 51 23.5 92.5t61.5 71t84 58t92 61.5t84 72.5t61.5 100.5t23.5 137q0 79 -26 142 q-72 166 -322 166q-126 0 -307 -72v-174h-21zM389 0v205h21v-205h-21z" />
<glyph unicode="@" horiz-adv-x="1658" d="M41 518q0 176 62.5 328.5t171.5 259.5t262.5 168t330.5 61q206 0 377 -83t272 -236.5t101 -347.5q0 -111 -33 -206.5t-96.5 -169t-163.5 -115.5t-225 -42h-33v80h-4q-120 -94 -279 -94q-123 0 -196.5 54t-73.5 159q0 118 77.5 177.5t258.5 59.5h217v115q0 119 -51 178.5 t-182 59.5q-113 0 -246 -39v-168h-21v182q127 45 267 45q132 0 192.5 -57t60.5 -201v-530q119 0 212.5 36t148 90.5t89.5 126.5t47.5 134.5t12.5 124.5q0 145 -59 268t-159.5 205t-232.5 128t-278 46q-231 0 -414.5 -99t-288 -281.5t-104.5 -416.5q0 -217 96 -387.5 t264 -263t378 -92.5l-2 -21q-163 0 -304 58.5t-240 160t-155.5 242.5t-56.5 303zM535 334q0 -88 62 -140.5t187 -52.5q165 0 283 103v307h-217q-93 0 -156.5 -15t-97.5 -45.5t-47.5 -67.5t-13.5 -89z" />
<glyph unicode="A" horiz-adv-x="1433" d="M61 0v20h132l522 1352h-172v21h209l510 -1373h110v-20h-348v20h215l-152 410h-714l-158 -410h195v-20h-349zM381 451h700l-344 921h-2z" />
<glyph unicode="B" horiz-adv-x="1290" d="M61 0v20h164v1352h-164v21h676q178 0 273.5 -98t95.5 -251q0 -132 -65.5 -220t-194.5 -115v-4q149 -24 225 -119t76 -228q0 -166 -94.5 -262t-274.5 -96h-717zM246 20h532q168 0 258 88t90 250q0 153 -98.5 245.5t-290.5 92.5h-491v-676zM246 717h491q169 0 258.5 83 t89.5 244q0 149 -91 238.5t-257 89.5h-491v-655z" />
<glyph unicode="C" horiz-adv-x="1249" d="M143 707q0 123 13 220t49 191t95 156.5t157 100.5t229 38q227 0 440 -61v-205h-20v188q-234 58 -420 58q-94 0 -170.5 -20.5t-130 -55.5t-94 -88t-64.5 -110t-38.5 -129t-19.5 -138t-5 -145q0 -83 5 -152.5t19.5 -144t38.5 -132.5t64 -112t94 -89t130.5 -56t170.5 -21 q199 0 420 57v189h20v-205q-213 -61 -440 -61q-95 0 -172 19.5t-133 54t-98 87t-68.5 112.5t-42.5 136t-22.5 152t-6.5 166z" />
<glyph unicode="D" horiz-adv-x="1351" d="M61 0v20h164v1352h-164v21h615q532 0 532 -686q0 -707 -532 -707h-615zM246 20h430q86 0 157.5 20.5t123.5 56.5t92.5 87.5t66.5 110t42.5 128.5t23 139t6.5 145q0 108 -13.5 199.5t-49 180t-91.5 149.5t-147.5 98.5t-210.5 37.5h-430v-1352z" />
<glyph unicode="E" horiz-adv-x="1167" d="M61 0v20h164v1352h-164v21h963v-205h-20v184h-758v-635h676v-20h-676v-697h758v185h20v-205h-963z" />
<glyph unicode="F" horiz-adv-x="1136" d="M61 0v20h164v1352h-164v21h943v-205h-21v184h-737v-676h655v-20h-655v-656h164v-20h-349z" />
<glyph unicode="G" horiz-adv-x="1269" d="M143 707q0 123 13 220t49 191t95 156.5t157 100.5t229 38q227 0 440 -61v-205h-20v188q-234 58 -420 58q-94 0 -170.5 -20.5t-130 -55.5t-94 -88t-64.5 -110t-38.5 -129t-19.5 -138t-5 -145q0 -89 10.5 -170t33.5 -163t63.5 -148t96.5 -117.5t137.5 -80t180.5 -28.5 q246 0 420 131v504h-369v20h389v-536q-185 -139 -440 -139q-100 0 -182.5 26.5t-141 76t-101.5 115t-68.5 148.5t-37.5 172t-12 189z" />
<glyph unicode="H" horiz-adv-x="1392" d="M61 0v20h164v1352h-164v21h349v-21h-164v-635h901v635h-164v21h348v-21h-164v-1352h164v-20h-348v20h164v697h-901v-697h164v-20h-349z" />
<glyph unicode="I" horiz-adv-x="471" d="M61 0v20h164v1352h-164v21h349v-21h-164v-1352h164v-20h-349z" />
<glyph unicode="J" horiz-adv-x="655" d="M51 -10l4 20q71 -10 129 -10q131 0 178.5 73t47.5 234v1065h-164v21h348v-21h-164v-1065q0 -128 -28.5 -200.5t-80 -99.5t-137.5 -27q-55 0 -133 10z" />
<glyph unicode="K" horiz-adv-x="1392" d="M61 0v20h164v1352h-164v21h349v-21h-164v-880l846 880h-211v21h430v-21h-195l-512 -538l539 -814h188v-20h-430v20h215l-528 797l-342 -354v-443h164v-20h-349z" />
<glyph unicode="L" horiz-adv-x="1126" d="M61 0v20h164v1352h-164v21h349v-21h-164v-1352h758v185h20v-205h-963z" />
<glyph unicode="M" horiz-adv-x="1720" d="M61 0v20h164v1352h-164v21h185l612 -1360h4l613 1360h184v-21h-164v-1352h164v-20h-348v20h164v1311h-5l-600 -1331h-20l-600 1331h-4v-1311h164v-20h-349z" />
<glyph unicode="N" horiz-adv-x="1413" d="M61 0v20h164v1352h-164v21h185l917 -1350h4v1329h-163v21h348v-21h-164v-1372h-21l-917 1350h-4v-1330h164v-20h-349z" />
<glyph unicode="O" horiz-adv-x="1372" d="M143 707q0 123 13 220t49 191t95 156.5t157 100.5t229 38t229 -38t157 -100.5t95 -156.5t49 -191t13 -220q0 -88 -6.5 -163t-22.5 -151t-42.5 -136t-68.5 -113t-98 -88.5t-133 -55.5t-172 -20t-172 20t-133 55.5t-98 88.5t-68.5 113t-42.5 136t-22.5 151t-6.5 163z M164 707q0 -79 5 -146t19.5 -141.5t38.5 -133.5t64.5 -114t94 -91.5t130 -58.5t170.5 -22t170.5 22t130 58.5t94 91.5t64.5 114t38.5 133.5t19.5 141.5t5 146t-5 145t-19.5 138t-38.5 129t-64.5 110t-94 88t-130 55.5t-170.5 20.5t-170.5 -20.5t-130 -55.5t-94 -88 t-64.5 -110t-38.5 -129t-19.5 -138t-5 -145z" />
<glyph unicode="P" horiz-adv-x="1269" d="M61 0v20h164v1352h-164v21h697q119 0 204 -50t124.5 -129.5t39.5 -179.5q0 -166 -94 -262t-274 -96h-512v-656h164v-20h-349zM246 696h512q168 0 258 88t90 250q0 151 -92 244.5t-256 93.5h-512v-676z" />
<glyph unicode="Q" horiz-adv-x="1372" d="M143 707q0 123 13 220t49 191t95 156.5t157 100.5t229 38t229 -38t157 -100.5t95 -156.5t49 -191t13 -220q0 -87 -6 -161.5t-22.5 -149.5t-42 -135t-67 -113t-96.5 -89t-130.5 -57t-168.5 -22q59 -84 197 -123q91 -26 199 -26q56 0 116 7v-22q-60 -7 -117 -7 q-109 0 -206 25q-147 39 -213 146q-128 2 -223 42.5t-152.5 105t-93 160.5t-48 195.5t-12.5 223.5zM164 707q0 -79 5 -146t19.5 -141.5t38.5 -133.5t64.5 -114t94 -91.5t130 -58.5t170.5 -22t170.5 22t130 58.5t94 91.5t64.5 114t38.5 133.5t19.5 141.5t5 146t-5 145 t-19.5 138t-38.5 129t-64.5 110t-94 88t-130 55.5t-170.5 20.5t-170.5 -20.5t-130 -55.5t-94 -88t-64.5 -110t-38.5 -129t-19.5 -138t-5 -145z" />
<glyph unicode="R" horiz-adv-x="1331" d="M61 0v20h164v1352h-164v21h697q118 0 203.5 -55t125 -139t39.5 -185q0 -162 -100.5 -268.5t-271.5 -110.5l399 -615h117v-20h-367v20h225l-395 615h-487v-615h164v-20h-349zM246 655h491q168 0 268.5 98.5t100.5 260.5q0 153 -92.5 255.5t-255.5 102.5h-512v-717z" />
<glyph unicode="S" horiz-adv-x="1187" d="M143 41v205h21v-189q221 -57 430 -57q95 0 170.5 21.5t123 56.5t79 81.5t44.5 93t13 95.5q0 51 -16.5 95.5t-40 76t-62 59.5t-70.5 44.5t-77.5 33t-70.5 23.5t-62 16q-83 18 -157 47t-146 74.5t-115 114.5t-43 153q0 86 32 150.5t91 102.5t135.5 56.5t171.5 18.5 q217 0 430 -61v-205h-20v188q-234 58 -410 58q-95 0 -168 -17.5t-118 -46t-73.5 -69.5t-39.5 -83.5t-11 -91.5q0 -51 18.5 -96.5t46.5 -79t69.5 -63t79.5 -49t85.5 -37t77.5 -26.5t64 -17q419 -91 419 -369q0 -174 -123 -271t-327 -97q-238 0 -451 61z" />
<glyph unicode="T" horiz-adv-x="1187" d="M143 1188v205h901v-205h-20v184h-420v-1352h164v-20h-348v20h164v1352h-420v-184h-21z" />
<glyph unicode="U" horiz-adv-x="1392" d="M61 1372v21h349v-21h-164v-880q0 -50 1 -80t10 -88t25 -95.5t50 -85t81.5 -75.5t123 -48t170.5 -20q89 0 159.5 19.5t116 48.5t78 75t49 85.5t25.5 95t10.5 88.5t1.5 80v880h-164v21h348v-21h-164v-880q0 -265 -110.5 -388.5t-360.5 -123.5t-360.5 123.5t-110.5 388.5 v880h-164z" />
<glyph unicode="V" horiz-adv-x="1413" d="M61 1372v21h390v-21h-256l522 -1358h2l500 1358h-256v21h389v-21h-111l-510 -1382h-29l-530 1382h-111z" />
<glyph unicode="W" horiz-adv-x="2007" d="M61 1372v21h390v-21h-258l395 -1341h2l399 1362h29l399 -1362h2l396 1341h-259v21h390v-21h-109l-403 -1382h-31l-397 1372h-5l-397 -1372h-31l-403 1382h-109z" />
<glyph unicode="X" horiz-adv-x="1433" d="M61 0v20h148l504 719l-443 633h-188v21h389v-21h-174l430 -612l430 612h-194v21h389v-21h-168l-445 -633l506 -719h127v-20h-389v20h236l-492 701l-491 -701h215v-20h-390z" />
<glyph unicode="Y" horiz-adv-x="1351" d="M61 1372v21h392v-21h-254l475 -850h4l473 850h-252v21h391v-21h-114l-490 -880v-472h164v-20h-348v20h164v472l-492 880h-113z" />
<glyph unicode="Z" horiz-adv-x="1146" d="M123 0v20l854 1348v4h-813v-184h-21v205h861v-21l-850 -1347v-5h870v185h20v-205h-921z" />
<glyph unicode="[" horiz-adv-x="614" d="M164 -287v1966h328v-20h-308v-1925h308v-21h-328z" />
<glyph unicode="\" horiz-adv-x="1105" d="M164 1393h20l758 -1393h-20z" />
<glyph unicode="]" horiz-adv-x="614" d="M123 -266h307v1925h-307v20h328v-1966h-328v21z" />
<glyph unicode="^" horiz-adv-x="778" d="M164 1044l207 390h35l208 -390h-20l-207 371l-203 -371h-20z" />
<glyph unicode="_" d="M164 -123h696v-20h-696v20z" />
<glyph unicode="`" horiz-adv-x="593" d="M236 1434h30l144 -287h-21z" />
<glyph unicode="a" horiz-adv-x="1095" d="M133 256q0 72 23 125.5t61 85.5t95.5 52t116.5 27t134 7h287v164q0 153 -69 230t-238 77q-135 0 -318 -33v-172h-20v191q167 34 338 34q167 0 247 -74t80 -253v-697h164v-20h-184v102h-4q-92 -64 -176.5 -93t-188.5 -29q-72 0 -132.5 15.5t-110 47t-77.5 86t-28 127.5z M154 256q0 -114 83 -185t244 -71q210 0 369 133v399h-287q-120 0 -202 -19.5t-126 -58t-62.5 -86t-18.5 -112.5z" />
<glyph unicode="b" horiz-adv-x="1146" d="M61 0v20h164v1393h-164v21h185v-512h4q68 56 164 89t200 33q105 0 181.5 -39.5t121.5 -112.5t66 -167t21 -213t-21 -213t-66 -167t-121.5 -112.5t-181.5 -39.5q-104 0 -200 33t-164 89h-4l-4 -102h-181zM246 133q59 -49 158.5 -91t209.5 -42q83 0 148 28t106 75t67.5 114 t37 139t10.5 156t-10.5 156t-37 139t-67.5 114t-106 75t-148 28q-110 0 -209.5 -42t-158.5 -91v-758z" />
<glyph unicode="c" d="M143 512q0 119 25 213.5t77 167t140.5 112t208.5 39.5q169 0 328 -40v-185h-21v168q-145 37 -307 37q-95 0 -170 -28t-123 -75t-79.5 -114t-44.5 -139.5t-13 -155.5t13 -155.5t44.5 -139.5t79.5 -114t123 -75t170 -28q167 0 321 41l7 -21q-159 -40 -328 -40 q-120 0 -208.5 39.5t-140.5 112t-77 167t-25 213.5z" />
<glyph unicode="d" horiz-adv-x="1146" d="M143 512q0 119 21 213t65.5 167t121 112.5t181.5 39.5q104 0 200.5 -33t164.5 -89h4v491h-164v21h185v-1414h163v-20h-184v102h-4q-68 -56 -164.5 -89t-200.5 -33q-105 0 -181.5 39.5t-121 112.5t-65.5 167t-21 213zM164 512q0 -84 10.5 -156t36.5 -139t67 -114t106 -75 t148 -28q110 0 210 42t159 91v758q-59 49 -159 91t-210 42q-83 0 -148 -28t-106 -75t-67 -114t-36.5 -139t-10.5 -156z" />
<glyph unicode="e" horiz-adv-x="1085" d="M143 512q0 119 25 213.5t77 167t140.5 112t208.5 39.5q98 0 171 -28.5t111.5 -75t61.5 -102.5q22 -54 24 -114q1 -19 2 -37q0 -39 -4 -71q-6 -48 -18 -84h-778q0 -121 22 -213.5t72 -166.5t139.5 -113t216.5 -39q195 0 322 41l6 -21q-146 -40 -328 -40q-127 0 -220 39.5 t-147 112.5t-79 167t-25 213zM164 553h762q16 67 16 131q0 61 -18 123q-18 63 -57 110.5t-108.5 77t-164.5 29.5q-400 0 -430 -471z" />
<glyph unicode="f" horiz-adv-x="686" d="M61 1004v16l185 4v174q0 133 58.5 184.5t187.5 51.5q47 0 133 -11l-4 -20q-71 10 -129 10q-129 0 -177.5 -50t-48.5 -175v-164h307v-20h-307v-984h205v-20h-389v20h164v984h-185z" />
<glyph unicode="g" horiz-adv-x="1136" d="M102 -164q0 146 211 264v4q-58 24 -69 80q-3 16 -3 32q0 41 20 84q28 60 79 106v4q-176 86 -176 286q0 158 99.5 253t279.5 95q61 0 131 -20h319v-20h-264v-3q182 -91 182 -305q0 -154 -104 -240.5t-264 -86.5q-106 0 -183 30q-57 -50 -82 -115q-13 -34 -13 -64 q0 -27 11 -51q22 -50 93 -54l385 -21q151 -8 210.5 -60.5t59.5 -135.5q0 -147 -134 -237.5t-409 -90.5q-176 0 -277.5 66.5t-101.5 199.5zM123 -164q0 -246 379 -246q227 0 364.5 79.5t137.5 228.5q0 162 -256 174l-408 20q-109 -64 -163 -120t-54 -136zM184 696 q0 -140 96 -223.5t263 -83.5q159 0 253.5 85.5t94.5 221.5q0 141 -95.5 234.5t-252.5 93.5q-177 0 -268 -91t-91 -237z" />
<glyph unicode="h" horiz-adv-x="1208" d="M61 0v20h164v1393h-164v21h185v-574h4q215 184 426 184q155 0 231 -79.5t76 -247.5v-697h164v-20h-348v20h164v697q0 307 -287 307q-208 0 -430 -195v-809h164v-20h-349z" />
<glyph unicode="i" horiz-adv-x="471" d="M61 0v20h164v984h-164v20h185v-1004h164v-20h-349zM225 1229v205h21v-205h-21z" />
<glyph unicode="j" horiz-adv-x="430" d="M-113 -420l4 21q78 -11 129 -11q129 0 177.5 50.5t48.5 175.5v1188h-185v20h205v-1219q0 -133 -58.5 -184t-187.5 -51q-55 0 -133 10zM246 1229v205h20v-205h-20z" />
<glyph unicode="k" horiz-adv-x="1228" d="M61 0v20h164v1393h-164v21h185v-949l680 519h-168v20h389v-20h-191l-393 -302l426 -682h178v-20h-389v20h187l-418 670l-301 -227v-443h164v-20h-349z" />
<glyph unicode="l" horiz-adv-x="471" d="M61 0v20h164v1393h-164v21h185v-1414h164v-20h-349z" />
<glyph unicode="m" horiz-adv-x="1822" d="M61 0v20h164v984h-164v20h185v-164h4q44 41 73.5 65t78 56t101.5 47.5t111 15.5q60 0 109 -12q144 -37 184 -186q198 198 383 198q155 0 231 -79.5t76 -247.5v-697h164v-20h-348v20h164v697q0 307 -287 307q-57 0 -113 -18.5t-108.5 -55t-82.5 -61t-75 -66.5 q11 -57 11 -106v-697h163v-20h-348v20h164v697q0 307 -287 307q-47 0 -95 -14.5t-80 -30.5t-77 -50.5t-60.5 -48.5t-55.5 -51v-809h164v-20h-349z" />
<glyph unicode="n" horiz-adv-x="1208" d="M61 0v20h164v984h-164v20h185v-164h4q215 184 426 184q155 0 231 -79.5t76 -247.5v-697h164v-20h-348v20h164v697q0 307 -287 307q-208 0 -430 -195v-809h164v-20h-349z" />
<glyph unicode="o" horiz-adv-x="1126" d="M143 512q0 119 23 213.5t71.5 167t131 112t194.5 39.5t194.5 -39.5t131 -112t71.5 -167t23 -213.5t-23 -213.5t-71.5 -167t-131 -112t-194.5 -39.5t-194.5 39.5t-131 112t-71.5 167t-23 213.5zM164 512q0 -84 11.5 -156t40.5 -139t73.5 -114t114.5 -75t159 -28t159 28 t114.5 75t73.5 114t41 139t12 156t-12 156t-41 139t-73.5 114t-114.5 75t-159 28t-159 -28t-114.5 -75t-73.5 -114t-40.5 -139t-11.5 -156z" />
<glyph unicode="p" horiz-adv-x="1146" d="M61 -389h164v1393h-164v20h185v-102h4q68 56 164 89t200 33q105 0 181.5 -39.5t121.5 -112.5t66 -167t21 -213t-21 -213t-66 -167t-121.5 -112.5t-181.5 -39.5q-104 0 -200 33t-164 89h-4v-491h164v-21h-349v21zM246 133q59 -49 158.5 -91t209.5 -42q83 0 148 28t106 75 t67.5 114t37 139t10.5 156t-10.5 156t-37 139t-67.5 114t-106 75t-148 28q-110 0 -209.5 -42t-158.5 -91v-758z" />
<glyph unicode="q" horiz-adv-x="1085" d="M143 512q0 119 21 213t65.5 167t121 112.5t181.5 39.5q104 0 200.5 -33t164.5 -89h4l4 102h17v-1413h163v-21h-348v21h164v491h-4q-68 -56 -164.5 -89t-200.5 -33q-105 0 -181.5 39.5t-121 112.5t-65.5 167t-21 213zM164 512q0 -84 10.5 -156t36.5 -139t67 -114t106 -75 t148 -28q110 0 210 42t159 91v758q-59 49 -159 91t-210 42q-83 0 -148 -28t-106 -75t-67 -114t-36.5 -139t-10.5 -156z" />
<glyph unicode="r" horiz-adv-x="819" d="M61 0v20h164v984h-164v20h185v-164h4q238 184 446 184v-20q-123 0 -245.5 -61.5t-204.5 -133.5v-809h205v-20h-390z" />
<glyph unicode="s" horiz-adv-x="983" d="M133 20v185h21v-168q150 -37 368 -37q63 0 113.5 12.5t82 30.5t54 45.5t33.5 49.5t17 50t6.5 40.5t0.5 27.5q0 35 -5.5 61t-26 57t-56 55t-98.5 47.5t-151 41.5q-79 16 -133.5 35t-104.5 50.5t-75 80t-25 115.5q0 112 82 178.5t245 66.5q210 0 369 -40v-185h-21v168 q-150 37 -348 37q-63 0 -113.5 -11t-82 -27t-54 -40t-33.5 -43.5t-17 -44t-6.5 -35.5t-0.5 -24q0 -34 6 -61t26 -58.5t54.5 -55.5t95 -47t144.5 -40q191 -38 270.5 -102t79.5 -179q0 -128 -82.5 -202t-245.5 -74q-230 0 -389 40z" />
<glyph unicode="t" horiz-adv-x="768" d="M61 1004v16l185 4l4 287h16v-287h348v-20h-348v-697q0 -161 47.5 -234t178.5 -73q58 0 129 10l4 -20q-78 -10 -133 -10q-86 0 -137.5 27t-80 99.5t-28.5 200.5v697h-185z" />
<glyph unicode="u" horiz-adv-x="1208" d="M61 1004v20h185v-717q0 -307 286 -307q209 0 431 195v809h-226v20h246v-1004h164v-20h-184v164h-5q-215 -184 -426 -184q-155 0 -231 79.5t-76 247.5v697h-164z" />
<glyph unicode="v" horiz-adv-x="1187" d="M61 1004v20h349v-20h-213l395 -977h4l395 977h-213v20h348v-20h-110l-412 -1014h-20l-412 1014h-111z" />
<glyph unicode="w" horiz-adv-x="1658" d="M61 1004v20h349v-20h-220l320 -973h4l305 993h21l315 -993h4l309 973h-219v20h348v-20h-108l-322 -1014h-20l-316 995h-4l-305 -995h-20l-332 1014h-109z" />
<glyph unicode="x" horiz-adv-x="1249" d="M61 0v20h140l401 515l-371 469h-149v20h348v-20h-172l358 -453l353 453h-150v20h348v-20h-170l-366 -469l407 -515h150v-20h-348v20h170l-394 498l-387 -498h181v-20h-349z" />
<glyph unicode="y" horiz-adv-x="1187" d="M61 1004v20h349v-20h-213l413 -996h4l377 996h-213v20h348v-20h-110l-424 -1117q-62 -163 -140 -240t-186 -77q-47 0 -92 10l4 21q51 -11 88 -11q38 0 72.5 11.5t60.5 28t51 45.5t41.5 53.5t35 62.5t28.5 61.5t25.5 63.5t21.5 55l-430 1033h-111z" />
<glyph unicode="z" horiz-adv-x="962" d="M92 0v20l737 979v5h-706v-185h-21v205h758v-20l-737 -979v-5h737v185h21v-205h-789z" />
<glyph unicode="{" horiz-adv-x="696" d="M164 676v41q35 5 60.5 17.5t40.5 35t24 42.5t12.5 56.5t4.5 59t1 65.5q0 60 -10 192t-10 195q0 172 67 235.5t219 63.5v-20q-47 0 -72.5 -2t-68.5 -15.5t-65.5 -39.5t-41 -79.5t-18.5 -129.5q0 -62 10.5 -225.5t10.5 -227.5q0 -116 -36.5 -172t-109.5 -70v-4 q73 -14 109.5 -69.5t36.5 -171.5q0 -64 -10.5 -227.5t-10.5 -225.5q0 -76 18.5 -129.5t41 -79.5t65.5 -39.5t68.5 -15.5t72.5 -2v-21q-152 0 -219 63.5t-67 235.5q0 63 10 195t10 192q0 37 -0.5 56t-3 52t-7.5 50.5t-15.5 41.5t-25.5 37t-38 24.5t-53 15.5z" />
<glyph unicode="|" horiz-adv-x="348" d="M164 -205v1802h20v-1802h-20z" />
<glyph unicode="}" horiz-adv-x="696" d="M123 -266q47 0 72.5 2t68.5 15.5t65.5 39.5t41 79.5t18.5 129.5q0 62 -10 225.5t-10 227.5q0 117 36 172t109 69v4q-73 14 -109 69.5t-36 172.5q0 64 10 227.5t10 225.5q0 76 -18.5 129.5t-41 79.5t-65.5 39.5t-68.5 15.5t-72.5 2v20q152 0 219.5 -63.5t67.5 -235.5 q0 -63 -10.5 -195t-10.5 -192q0 -44 1 -66t4.5 -58.5t12.5 -56.5t24 -42.5t40.5 -35t60.5 -17.5v-41q-30 -4 -53 -15.5t-38 -24.5t-25.5 -37t-15.5 -41.5t-7.5 -50.5t-3 -52t-0.5 -56q0 -60 10.5 -192t10.5 -195q0 -172 -67.5 -235.5t-219.5 -63.5v21z" />
<glyph unicode="~" horiz-adv-x="942" d="M113 614q80 80 120 107t91 27q41 0 118 -36t149.5 -72t100.5 -36q34 0 66.5 23t66.5 92l15 -8q-33 -64 -64.5 -95.5t-83.5 -31.5q-9 0 -41 8q-33 11 -159.5 73t-165.5 62q-26 0 -43.5 -4.5t-58 -33.5t-99.5 -87z" />
<glyph unicode="&#xa1;" horiz-adv-x="348" d="M164 -410v983h20v-983h-20zM164 819v205h20v-205h-20z" />
<glyph unicode="&#xa2;" horiz-adv-x="1044" d="M164 512q0 152 50.5 270.5t151.5 188.5t238 73v185h21v-185q95 -1 165 -18.5t152 -52.5l-4 -21q-8 3 -39.5 14.5t-39 14t-33.5 11.5t-37 11t-34.5 7.5t-40.5 7.5t-40.5 4t-48.5 2v-1024q20 0 39 1t33.5 2t34 4.5t29 5t30 7.5t27 7.5t29.5 10t27.5 10t31.5 12t32 12.5 l4 -21q-79 -35 -149.5 -52.5t-167.5 -18.5v-185h-21v185q-137 3 -238 73t-151.5 188.5t-50.5 270.5zM184 512q0 -101 26.5 -191t77.5 -161.5t132.5 -114.5t183.5 -45v1024q-102 -2 -183.5 -45.5t-132.5 -115t-77.5 -161.5t-26.5 -190z" />
<glyph unicode="&#xa3;" horiz-adv-x="1187" d="M123 0v20h102v676h-102v21h102v368q0 86 32 150.5t91 102.5t135.5 56.5t171.5 18.5q259 0 430 -102v-164h-20v149q-180 97 -410 97q-95 0 -168 -17.5t-118 -46t-73.5 -69.5t-39 -83.5t-10.5 -91.5v-368h532v-21h-532v-676h819v185h20v-205h-962z" />
<glyph unicode="&#xa4;" horiz-adv-x="1050" d="M143 928l17 16l162 -184q90 74 204 74q113 0 203 -74l160 184l18 -16l-159 -183q102 -96 102 -235q0 -68 -26.5 -129t-73.5 -105l155 -176l-18 -18l-158 178q-88 -72 -203 -72q-116 0 -204 72l-156 -178l-19 18l156 176q-98 95 -98 234q0 138 98 233zM229 510 q0 -122 87.5 -209.5t209.5 -87.5t210.5 88t88.5 209q0 122 -88.5 210.5t-210.5 88.5q-121 0 -209 -88.5t-88 -210.5z" />
<glyph unicode="&#xa5;" horiz-adv-x="1351" d="M61 1372v21h392v-21h-254l475 -850h4l473 850h-252v21h391v-21h-114l-484 -870h373v-21h-379v-461h164v-20h-348v20h164v461h-379v21h372l-485 870h-113z" />
<glyph unicode="&#xa6;" horiz-adv-x="348" d="M164 -205v819h20v-819h-20zM164 778v819h20v-819h-20z" />
<glyph unicode="&#xa7;" horiz-adv-x="1228" d="M184 758q0 118 59 201.5t165 125.5q-224 115 -224 308q0 168 116.5 247.5t313.5 79.5q259 0 430 -102l-10 -19q-181 101 -420 101q-95 0 -167.5 -17.5t-117.5 -45.5t-73.5 -69t-39.5 -83t-11 -92t18 -95.5t47 -79.5t69.5 -63.5t79.5 -50t84.5 -37.5t77.5 -26.5t64 -16.5 q66 -15 120 -32.5t112.5 -48t97.5 -68.5t64.5 -94.5t25.5 -125.5q0 -117 -59 -201t-164 -128q223 -114 223 -306q0 -168 -116.5 -247.5t-313.5 -79.5q-259 0 -430 102l10 19q181 -101 420 -101q409 0 409 307q0 50 -18 95.5t-47 79.5t-69.5 63.5t-79.5 50t-84.5 37.5 t-77.5 26.5t-64 16.5q-66 15 -120 32.5t-112.5 48t-97.5 68.5t-64.5 94.5t-25.5 125.5zM205 758q0 -51 16 -95.5t40.5 -76t62 -59.5t70.5 -45.5t76.5 -33t71 -23t62.5 -15.5q116 -27 211 -72q81 29 134.5 83.5t74 112.5t20.5 121q0 51 -16.5 95.5t-40 76t-62 59.5t-70.5 45 t-77 33.5t-70.5 23.5t-62.5 16q-118 24 -213 69q-80 -29 -133 -83.5t-73.5 -112t-20.5 -119.5z" />
<glyph unicode="&#xa8;" horiz-adv-x="983" d="M205 1229v205h20v-205h-20zM758 1229v205h20v-205h-20z" />
<glyph unicode="&#xa9;" horiz-adv-x="1566" d="M61 696q0 196 96.5 361t262.5 260.5t362 95.5q197 0 363 -95.5t263 -260.5t97 -361t-97 -361t-263 -260t-363 -95t-362.5 95t-262 260t-96.5 361zM82 696q0 -143 55.5 -272t149 -221.5t223 -147.5t272.5 -55q191 0 352.5 92.5t256 253t94.5 350.5t-94.5 350.5t-256 253.5 t-352.5 93q-143 0 -272.5 -55t-223 -148t-149 -222t-55.5 -272zM471 705q0 352 313 352q140 0 238 -66l-8 -20q-104 65 -230 65q-157 0 -224.5 -86t-67.5 -245q0 -353 292 -353q132 0 228 62l10 -17q-96 -65 -238 -65q-313 0 -313 373z" />
<glyph unicode="&#xaa;" horiz-adv-x="575" d="M61 1008q0 10 5 45q24 106 210 106h142v80q0 74 -34.5 112t-117.5 38q-50 0 -155 -17v-84h-15v96q97 19 172 19q83 0 123.5 -37.5t40.5 -126.5v-344h82v-14h-96v51h-2q-89 -62 -180 -62q-40 0 -58 4q-54 11 -85.5 45.5t-31.5 88.5zM76 1010q0 -55 41 -90t121 -35 q105 0 180 65v195h-142q-113 0 -156.5 -34.5t-43.5 -100.5z" />
<glyph unicode="&#xab;" horiz-adv-x="1495" d="M164 502v20l450 277v-21l-430 -266l430 -266v-21zM881 502v20l450 277v-21l-430 -266l430 -266v-21z" />
<glyph unicode="&#xac;" horiz-adv-x="1208" d="M205 532v21h799v-256h-21v235h-778z" />
<glyph unicode="&#xad;" horiz-adv-x="1105" d="M205 532v21h696v-21h-696z" />
<glyph unicode="&#xae;" horiz-adv-x="1566" d="M61 696q0 196 96.5 361t262.5 260.5t362 95.5q197 0 363 -95.5t263 -260.5t97 -361t-97 -361t-263 -260t-363 -95t-362.5 95t-262 260t-96.5 361zM82 696q0 -143 55.5 -272t149 -221.5t223 -147.5t272.5 -55q191 0 352.5 92.5t256 253t94.5 350.5t-94.5 350.5t-256 253.5 t-352.5 93q-143 0 -272.5 -55t-223 -148t-149 -222t-55.5 -272zM555 344v705h264q111 0 168 -58t57 -153q0 -104 -59.5 -164t-165.5 -60l244 -270h-27l-245 270h-216v-270h-20zM575 635h234q106 0 160.5 52t54.5 151q0 87 -53.5 138.5t-151.5 51.5h-244v-393z" />
<glyph unicode="&#xaf;" horiz-adv-x="819" d="M123 1249v21h573v-21h-573z" />
<glyph unicode="&#xb0;" horiz-adv-x="532" d="M100 1188q0 69 48.5 117.5t117.5 48.5t117.5 -48.5t48.5 -117.5t-48.5 -117.5t-117.5 -48.5t-117.5 48.5t-48.5 117.5zM119 1188q0 -63 42 -105.5t105 -42.5t105.5 42.5t42.5 105.5t-42.5 105t-105.5 42t-105 -42t-42 -105z" />
<glyph unicode="&#xb1;" d="M164 164v20h338v348h-338v21h338v338h20v-338h338v-21h-338v-348h338v-20h-696z" />
<glyph unicode="&#xb2;" horiz-adv-x="536" d="M61 1106v20q377 260 377 480q0 49 -14.5 86t-34.5 56.5t-47 31.5t-47 15t-39 3q-89 0 -180 -47v-84h-15v94q97 51 197 51q98 0 147.5 -57.5t49.5 -142.5q0 -229 -371 -490v-2h377v90h14v-104h-414z" />
<glyph unicode="&#xb3;" horiz-adv-x="546" d="M61 1143v98h15v-90q74 -41 186 -41q207 0 207 170q0 72 -54 119t-167 47h-78v16h78q92 0 147.5 50.5t55.5 119.5q0 26 -6.5 50t-24.5 52.5t-58.5 46t-99.5 17.5q-92 0 -166 -41v-90h-14v98q74 47 182 47q101 0 151 -47.5t50 -132.5q0 -68 -45 -114.5t-109 -61.5v-2 q77 -8 125.5 -55t48.5 -119q0 -184 -221 -184q-130 0 -203 47z" />
<glyph unicode="&#xb4;" horiz-adv-x="593" d="M176 1147l143 287h31l-153 -287h-21z" />
<glyph unicode="&#xb5;" horiz-adv-x="1208" d="M-133 -420l4 21q78 -11 129 -11q130 0 177.5 73.5t47.5 234.5v1106h-164v20h185v-717q0 -307 286 -307q209 0 431 195v809h-226v20h246v-1004h164v-20h-184v164h-5q-215 -184 -426 -184q-230 0 -286 178v-174q0 -210 -32.5 -296.5t-125.5 -109.5q-36 -8 -88 -8 q-55 0 -133 10z" />
<glyph unicode="&#xb6;" horiz-adv-x="1157" d="M61 999q0 183 112.5 288.5t299.5 105.5h520v-21h-168v-1352h168v-20h-356v20h168v1352h-143v-768h-189q-185 0 -298.5 109t-113.5 286z" />
<glyph unicode="&#xb7;" horiz-adv-x="512" d="M205 532v205h20v-205h-20z" />
<glyph unicode="&#xb8;" horiz-adv-x="602" d="M143 -395l7 18q73 -22 126 -22q47 0 80 14.5t47.5 37.5t20.5 42.5t6 38.5q0 15 -3 29t-13.5 32.5t-28 31.5t-50.5 22t-77 8v143h21v-123q75 -2 123.5 -36.5t48.5 -106.5q0 -69 -49 -111.5t-132 -42.5q-47 0 -127 25z" />
<glyph unicode="&#xb9;" horiz-adv-x="421" d="M61 1106v14h142v672l-131 -18v12l139 22h8v-688h141v-14h-299z" />
<glyph unicode="&#xba;" horiz-adv-x="546" d="M61 1137q0 124 51 195t162 71q110 0 160.5 -71.5t50.5 -194.5q0 -124 -50.5 -195.5t-160.5 -71.5q-111 0 -162 71.5t-51 195.5zM78 1137q0 -52 9.5 -95t31 -79.5t61 -57t94.5 -20.5q104 0 149.5 70.5t45.5 181.5t-45.5 181.5t-149.5 70.5q-55 0 -94.5 -20.5t-61 -57 t-31 -79.5t-9.5 -95z" />
<glyph unicode="&#xbb;" horiz-adv-x="1495" d="M164 225v21l430 266l-430 266v21l450 -277v-20zM881 225v21l430 266l-430 266v21l450 -277v-20z" />
<glyph unicode="&#xbc;" horiz-adv-x="1638" d="M164 696v15h141v671l-131 -18v12l139 23h9v-688h141v-15h-299zM485 0l758 1393h21l-758 -1393h-21zM1010 215v14q96 104 187 231t144 242h21v-473h113v-14h-113v-201h82v-14h-178v14h82v201h-338zM1028 229h320v451h-2q-106 -218 -318 -451z" />
<glyph unicode="&#xbd;" horiz-adv-x="1638" d="M164 696v15h141v671l-131 -18v12l139 23h9v-688h141v-15h-299zM393 0l758 1393h20l-757 -1393h-21zM1061 0v20q377 260 377 480q0 49 -14.5 86t-35 56.5t-47.5 31.5t-47 15t-39 3q-89 0 -180 -47v-84h-14v94q99 52 196 52q98 0 147.5 -58t49.5 -143q0 -229 -371 -490v-2 h377v90h15v-104h-414z" />
<glyph unicode="&#xbe;" horiz-adv-x="1638" d="M164 733v98h14v-90q74 -41 187 -41q206 0 206 170q0 72 -54 119t-167 47h-78v17h78q92 0 147.5 50.5t55.5 119.5q0 26 -6.5 50t-24 52.5t-58 46t-99.5 17.5q-92 0 -166 -41v-91h-15v99q74 47 183 47q101 0 150.5 -47.5t49.5 -132.5q0 -68 -44.5 -114.5t-108.5 -61.5v-3 q77 -8 125.5 -55t48.5 -119q0 -184 -221 -184q-130 0 -203 47zM506 0l758 1393h20l-758 -1393h-20zM1010 215v14q96 104 187 231t144 242h21v-473h113v-14h-113v-201h82v-14h-178v14h82v201h-338zM1028 229h320v451h-2q-106 -218 -318 -451z" />
<glyph unicode="&#xbf;" d="M164 -61q0 79 23.5 142.5t61.5 104t84 73.5t92 60.5t84 56t61.5 68t23.5 88.5v62h20v-62q0 -51 -23.5 -92.5t-61.5 -71t-84 -58t-92 -61.5t-84 -72.5t-61.5 -100.5t-23.5 -137q0 -82 27.5 -142t65 -91t90 -49t89 -22t76.5 -4q127 0 308 72v174h20v-190q-196 -76 -338 -76 q-83 0 -147 19.5t-103 51t-64 75.5t-34.5 88t-9.5 94zM594 819v205h20v-205h-20z" />
<glyph unicode="&#xc0;" horiz-adv-x="1433" d="M61 0v20h132l522 1352h-172v21h209l510 -1373h110v-20h-348v20h215l-152 410h-714l-158 -410h195v-20h-349zM381 451h700l-344 921h-2zM551 1782h31l143 -287h-20z" />
<glyph unicode="&#xc1;" horiz-adv-x="1433" d="M61 0v20h132l522 1352h-172v21h209l510 -1373h110v-20h-348v20h215l-152 410h-714l-158 -410h195v-20h-349zM381 451h700l-344 921h-2zM723 1495l143 287h31l-154 -287h-20z" />
<glyph unicode="&#xc2;" horiz-adv-x="1433" d="M61 0v20h132l522 1352h-172v21h209l510 -1373h110v-20h-348v20h215l-152 410h-714l-158 -410h195v-20h-349zM381 451h700l-344 921h-2zM504 1495l207 287h34l209 -287h-20l-207 268l-203 -268h-20z" />
<glyph unicode="&#xc3;" horiz-adv-x="1433" d="M61 0v20h132l522 1352h-172v21h209l510 -1373h110v-20h-348v20h215l-152 410h-714l-158 -410h195v-20h-349zM381 451h700l-344 921h-2zM424 1577q79 79 119.5 106t91.5 27q32 0 72 -22.5t71 -49t65.5 -49t57.5 -22.5q35 0 67 22.5t66 91.5l15 -8q-31 -61 -66 -94t-82 -33 q-18 0 -41 10q-24 11 -104.5 72.5t-118.5 61.5q-47 0 -80 -19t-121 -106z" />
<glyph unicode="&#xc4;" horiz-adv-x="1433" d="M61 0v20h132l522 1352h-172v21h209l510 -1373h110v-20h-348v20h215l-152 410h-714l-158 -410h195v-20h-349zM381 451h700l-344 921h-2zM449 1577v205h20v-205h-20zM1001 1577v205h21v-205h-21z" />
<glyph unicode="&#xc5;" horiz-adv-x="1433" d="M61 0v20h132l522 1352h-172v21h209l510 -1373h110v-20h-348v20h215l-152 410h-714l-158 -410h195v-20h-349zM381 451h700l-344 921h-2zM569 1679q0 69 48.5 117.5t117.5 48.5t117.5 -48.5t48.5 -117.5t-48.5 -117.5t-117.5 -48.5t-117.5 48.5t-48.5 117.5zM588 1679 q0 -63 42 -105t105 -42t105.5 42t42.5 105t-42.5 105.5t-105.5 42.5t-105 -42.5t-42 -105.5z" />
<glyph unicode="&#xc6;" horiz-adv-x="1875" d="M20 0v20h115l774 1352h-172v21h996v-205h-21v184h-758v-635h676v-20h-676v-697h758v185h21v-205h-799v717h-377q-67 -115 -198.5 -348.5t-198.5 -348.5h174v-20h-314zM567 737h367v633h-4z" />
<glyph unicode="&#xc7;" horiz-adv-x="1249" d="M143 707q0 123 13 220t49 191t95 156.5t157 100.5t229 38q227 0 440 -61v-205h-20v188q-234 58 -420 58q-94 0 -170.5 -20.5t-130 -55.5t-94 -88t-64.5 -110t-38.5 -129t-19.5 -138t-5 -145q0 -83 5 -152.5t19.5 -144t38.5 -132.5t64 -112t94 -89t130.5 -56t170.5 -21 q199 0 420 57v189h20v-205q-198 -58 -432 -61v-103q75 -2 123.5 -36.5t48.5 -106.5q0 -70 -48.5 -112t-131.5 -42q-47 0 -127 25l6 18q73 -22 127 -22q47 0 80 14.5t47.5 37.5t20.5 42.5t6 38.5q0 15 -3 29t-13.5 32.5t-28 31.5t-50.5 22t-77 8v123q-128 2 -223.5 41 t-153.5 102.5t-93.5 159.5t-48 196.5t-12.5 227.5z" />
<glyph unicode="&#xc8;" horiz-adv-x="1167" d="M61 0v20h164v1352h-164v21h963v-205h-20v184h-758v-635h676v-20h-676v-697h758v185h20v-205h-963zM455 1782h30l144 -287h-21z" />
<glyph unicode="&#xc9;" horiz-adv-x="1167" d="M61 0v20h164v1352h-164v21h963v-205h-20v184h-758v-635h676v-20h-676v-697h758v185h20v-205h-963zM600 1495l143 287h31l-153 -287h-21z" />
<glyph unicode="&#xca;" horiz-adv-x="1167" d="M61 0v20h164v1352h-164v21h963v-205h-20v184h-758v-635h676v-20h-676v-697h758v185h20v-205h-963zM399 1495l207 287h35l209 -287h-21l-206 268l-203 -268h-21z" />
<glyph unicode="&#xcb;" horiz-adv-x="1167" d="M61 0v20h164v1352h-164v21h963v-205h-20v184h-758v-635h676v-20h-676v-697h758v185h20v-205h-963zM307 1577v205h21v-205h-21zM860 1577v205h21v-205h-21z" />
<glyph unicode="&#xcc;" horiz-adv-x="471" d="M61 0v20h164v1352h-164v21h349v-21h-164v-1352h164v-20h-349zM74 1782h30l144 -287h-21z" />
<glyph unicode="&#xcd;" horiz-adv-x="471" d="M61 0v20h164v1352h-164v21h349v-21h-164v-1352h164v-20h-349zM231 1495l144 287h31l-154 -287h-21z" />
<glyph unicode="&#xce;" horiz-adv-x="471" d="M10 1495l207 287h35l209 -287h-21l-207 268l-202 -268h-21zM61 0v20h164v1352h-164v21h349v-21h-164v-1352h164v-20h-349z" />
<glyph unicode="&#xcf;" horiz-adv-x="471" d="M-51 1577v205h20v-205h-20zM61 0v20h164v1352h-164v21h349v-21h-164v-1352h164v-20h-349zM502 1577v205h20v-205h-20z" />
<glyph unicode="&#xd0;" horiz-adv-x="1351" d="M61 0v20h164v676h-164v21h164v655h-164v21h615q532 0 532 -686q0 -707 -532 -707h-615zM246 20h430q86 0 157.5 20.5t123.5 56.5t92.5 87.5t66.5 110t42.5 128.5t23 139t6.5 145q0 108 -13.5 199.5t-49 180t-91.5 149.5t-147.5 98.5t-210.5 37.5h-430v-655h225v-21h-225 v-676z" />
<glyph unicode="&#xd1;" horiz-adv-x="1413" d="M61 0v20h164v1352h-164v21h185l917 -1350h4v1329h-163v21h348v-21h-164v-1372h-21l-917 1350h-4v-1330h164v-20h-349zM416 1577q79 79 119.5 106t91.5 27q32 0 72 -22.5t71 -49t65.5 -49t57.5 -22.5q35 0 67 22.5t66 91.5l14 -8q-31 -61 -65.5 -94t-81.5 -33 q-18 0 -41 10q-24 11 -104.5 72.5t-118.5 61.5q-47 0 -80 -19t-121 -106z" />
<glyph unicode="&#xd2;" horiz-adv-x="1372" d="M143 707q0 123 13 220t49 191t95 156.5t157 100.5t229 38t229 -38t157 -100.5t95 -156.5t49 -191t13 -220q0 -88 -6.5 -163t-22.5 -151t-42.5 -136t-68.5 -113t-98 -88.5t-133 -55.5t-172 -20t-172 20t-133 55.5t-98 88.5t-68.5 113t-42.5 136t-22.5 151t-6.5 163z M164 707q0 -79 5 -146t19.5 -141.5t38.5 -133.5t64.5 -114t94 -91.5t130 -58.5t170.5 -22t170.5 22t130 58.5t94 91.5t64.5 114t38.5 133.5t19.5 141.5t5 146t-5 145t-19.5 138t-38.5 129t-64.5 110t-94 88t-130 55.5t-170.5 20.5t-170.5 -20.5t-130 -55.5t-94 -88 t-64.5 -110t-38.5 -129t-19.5 -138t-5 -145zM549 1782h31l143 -287h-21z" />
<glyph unicode="&#xd3;" horiz-adv-x="1372" d="M143 707q0 123 13 220t49 191t95 156.5t157 100.5t229 38t229 -38t157 -100.5t95 -156.5t49 -191t13 -220q0 -88 -6.5 -163t-22.5 -151t-42.5 -136t-68.5 -113t-98 -88.5t-133 -55.5t-172 -20t-172 20t-133 55.5t-98 88.5t-68.5 113t-42.5 136t-22.5 151t-6.5 163z M164 707q0 -79 5 -146t19.5 -141.5t38.5 -133.5t64.5 -114t94 -91.5t130 -58.5t170.5 -22t170.5 22t130 58.5t94 91.5t64.5 114t38.5 133.5t19.5 141.5t5 146t-5 145t-19.5 138t-38.5 129t-64.5 110t-94 88t-130 55.5t-170.5 20.5t-170.5 -20.5t-130 -55.5t-94 -88 t-64.5 -110t-38.5 -129t-19.5 -138t-5 -145zM682 1495l143 287h31l-154 -287h-20z" />
<glyph unicode="&#xd4;" horiz-adv-x="1372" d="M143 707q0 123 13 220t49 191t95 156.5t157 100.5t229 38t229 -38t157 -100.5t95 -156.5t49 -191t13 -220q0 -88 -6.5 -163t-22.5 -151t-42.5 -136t-68.5 -113t-98 -88.5t-133 -55.5t-172 -20t-172 20t-133 55.5t-98 88.5t-68.5 113t-42.5 136t-22.5 151t-6.5 163z M164 707q0 -79 5 -146t19.5 -141.5t38.5 -133.5t64.5 -114t94 -91.5t130 -58.5t170.5 -22t170.5 22t130 58.5t94 91.5t64.5 114t38.5 133.5t19.5 141.5t5 146t-5 145t-19.5 138t-38.5 129t-64.5 110t-94 88t-130 55.5t-170.5 20.5t-170.5 -20.5t-130 -55.5t-94 -88 t-64.5 -110t-38.5 -129t-19.5 -138t-5 -145zM463 1495l207 287h35l208 -287h-20l-207 268l-203 -268h-20z" />
<glyph unicode="&#xd5;" horiz-adv-x="1372" d="M143 707q0 123 13 220t49 191t95 156.5t157 100.5t229 38t229 -38t157 -100.5t95 -156.5t49 -191t13 -220q0 -88 -6.5 -163t-22.5 -151t-42.5 -136t-68.5 -113t-98 -88.5t-133 -55.5t-172 -20t-172 20t-133 55.5t-98 88.5t-68.5 113t-42.5 136t-22.5 151t-6.5 163z M164 707q0 -79 5 -146t19.5 -141.5t38.5 -133.5t64.5 -114t94 -91.5t130 -58.5t170.5 -22t170.5 22t130 58.5t94 91.5t64.5 114t38.5 133.5t19.5 141.5t5 146t-5 145t-19.5 138t-38.5 129t-64.5 110t-94 88t-130 55.5t-170.5 20.5t-170.5 -20.5t-130 -55.5t-94 -88 t-64.5 -110t-38.5 -129t-19.5 -138t-5 -145zM373 1577q79 79 119.5 106t91.5 27q32 0 72 -22.5t71 -49t65.5 -49t57.5 -22.5q35 0 67 22.5t66 91.5l14 -8q-31 -61 -65.5 -94t-81.5 -33q-18 0 -41 10q-24 11 -104.5 72.5t-118.5 61.5q-47 0 -80 -19t-121 -106z" />
<glyph unicode="&#xd6;" horiz-adv-x="1372" d="M143 707q0 123 13 220t49 191t95 156.5t157 100.5t229 38t229 -38t157 -100.5t95 -156.5t49 -191t13 -220q0 -88 -6.5 -163t-22.5 -151t-42.5 -136t-68.5 -113t-98 -88.5t-133 -55.5t-172 -20t-172 20t-133 55.5t-98 88.5t-68.5 113t-42.5 136t-22.5 151t-6.5 163z M164 707q0 -79 5 -146t19.5 -141.5t38.5 -133.5t64.5 -114t94 -91.5t130 -58.5t170.5 -22t170.5 22t130 58.5t94 91.5t64.5 114t38.5 133.5t19.5 141.5t5 146t-5 145t-19.5 138t-38.5 129t-64.5 110t-94 88t-130 55.5t-170.5 20.5t-170.5 -20.5t-130 -55.5t-94 -88 t-64.5 -110t-38.5 -129t-19.5 -138t-5 -145zM406 1577v205h20v-205h-20zM958 1577v205h21v-205h-21z" />
<glyph unicode="&#xd7;" horiz-adv-x="1077" d="M227 246l297 297l-297 297l15 14l297 -297l297 297l14 -14l-297 -297l297 -297l-14 -15l-297 297l-297 -297z" />
<glyph unicode="&#xd8;" horiz-adv-x="1372" d="M82 -31l172 215q-111 172 -111 523q0 123 13 220t49 191t95 156.5t157 100.5t229 38q276 0 410 -170l176 221l18 -14l-180 -225q119 -169 119 -518q0 -88 -6.5 -163t-22.5 -151t-42.5 -136t-68.5 -113t-98 -88.5t-133 -55.5t-172 -20q-289 0 -420 184l-166 -209zM164 707 q0 -338 104 -504l815 1024q-129 166 -397 166q-94 0 -170.5 -20.5t-130 -55.5t-94 -88t-64.5 -110t-38.5 -129t-19.5 -138t-5 -145zM283 182q128 -182 403 -182q94 0 170.5 22t130 58.5t94 91.5t64.5 114t38.5 133.5t19.5 141.5t5 146q0 340 -112 499z" />
<glyph unicode="&#xd9;" horiz-adv-x="1392" d="M61 1372v21h349v-21h-164v-880q0 -50 1 -80t10 -88t25 -95.5t50 -85t81.5 -75.5t123 -48t170.5 -20q89 0 159.5 19.5t116 48.5t78 75t49 85.5t25.5 95t10.5 88.5t1.5 80v880h-164v21h348v-21h-164v-880q0 -265 -110.5 -388.5t-360.5 -123.5t-360.5 123.5t-110.5 388.5 v880h-164zM516 1782h31l143 -287h-20z" />
<glyph unicode="&#xda;" horiz-adv-x="1392" d="M61 1372v21h349v-21h-164v-880q0 -50 1 -80t10 -88t25 -95.5t50 -85t81.5 -75.5t123 -48t170.5 -20q89 0 159.5 19.5t116 48.5t78 75t49 85.5t25.5 95t10.5 88.5t1.5 80v880h-164v21h348v-21h-164v-880q0 -265 -110.5 -388.5t-360.5 -123.5t-360.5 123.5t-110.5 388.5 v880h-164zM692 1495l144 287h30l-153 -287h-21z" />
<glyph unicode="&#xdb;" horiz-adv-x="1392" d="M61 1372v21h349v-21h-164v-880q0 -50 1 -80t10 -88t25 -95.5t50 -85t81.5 -75.5t123 -48t170.5 -20q89 0 159.5 19.5t116 48.5t78 75t49 85.5t25.5 95t10.5 88.5t1.5 80v880h-164v21h348v-21h-164v-880q0 -265 -110.5 -388.5t-360.5 -123.5t-360.5 123.5t-110.5 388.5 v880h-164zM489 1495l207 287h35l209 -287h-20l-207 268l-203 -268h-21z" />
<glyph unicode="&#xdc;" horiz-adv-x="1392" d="M61 1372v21h349v-21h-164v-880q0 -50 1 -80t10 -88t25 -95.5t50 -85t81.5 -75.5t123 -48t170.5 -20q89 0 159.5 19.5t116 48.5t78 75t49 85.5t25.5 95t10.5 88.5t1.5 80v880h-164v21h348v-21h-164v-880q0 -265 -110.5 -388.5t-360.5 -123.5t-360.5 123.5t-110.5 388.5 v880h-164zM410 1577v205h20v-205h-20zM963 1577v205h20v-205h-20z" />
<glyph unicode="&#xdd;" horiz-adv-x="1351" d="M61 1372v21h392v-21h-254l475 -850h4l473 850h-252v21h391v-21h-114l-490 -880v-472h164v-20h-348v20h164v472l-492 880h-113zM688 1495l143 287h31l-153 -287h-21z" />
<glyph unicode="&#xde;" horiz-adv-x="1269" d="M61 0v20h164v1352h-164v21h185v-338h512q119 0 204 -50t124.5 -129.5t39.5 -179.5q0 -166 -94 -262t-274 -96h-512v-338h-185zM246 358h512q168 0 258 88t90 250q0 151 -92 244.5t-256 93.5h-512v-676z" />
<glyph unicode="&#xdf;" horiz-adv-x="1320" d="M61 1004v16l185 4q0 410 409 410q183 0 276 -85t93 -223q0 -65 -21 -119t-53 -87.5t-68.5 -63t-68.5 -49t-53 -42.5t-21 -46q0 -55 109 -90q178 -56 259 -131t81 -201q0 -85 -31 -148.5t-84 -99t-114.5 -52.5t-131.5 -17q-139 0 -264 40l6 21q124 -41 250 -41 q70 0 126.5 14t92 35.5t61.5 52t38.5 56.5t20 58t8.5 48t1 33q0 49 -13.5 91t-39.5 72t-52.5 52.5t-63.5 39.5t-60 26t-56 18.5t-38 11.5q-70 24 -98.5 50.5t-28.5 60.5q0 27 21.5 52.5t53 45.5t69 49t69 60.5t53 83.5t21.5 114q0 72 -26 127t-63 85t-88 48t-91 23.5 t-81 5.5q-76 0 -137.5 -16t-101.5 -40t-69 -62t-44.5 -73.5t-24 -82.5t-10.5 -80t-2 -76v-983h-184v20h164v984h-185z" />
<glyph unicode="&#xe0;" horiz-adv-x="1095" d="M133 256q0 72 23 125.5t61 85.5t95.5 52t116.5 27t134 7h287v164q0 153 -69 230t-238 77q-135 0 -318 -33v-172h-20v191q167 34 338 34q167 0 247 -74t80 -253v-697h164v-20h-184v102h-4q-92 -64 -176.5 -93t-188.5 -29q-72 0 -132.5 15.5t-110 47t-77.5 86t-28 127.5z M154 256q0 -114 83 -185t244 -71q210 0 369 133v399h-287q-120 0 -202 -19.5t-126 -58t-62.5 -86t-18.5 -112.5zM410 1434h30l144 -287h-21z" />
<glyph unicode="&#xe1;" horiz-adv-x="1095" d="M133 256q0 72 23 125.5t61 85.5t95.5 52t116.5 27t134 7h287v164q0 153 -69 230t-238 77q-135 0 -318 -33v-172h-20v191q167 34 338 34q167 0 247 -74t80 -253v-697h164v-20h-184v102h-4q-92 -64 -176.5 -93t-188.5 -29q-72 0 -132.5 15.5t-110 47t-77.5 86t-28 127.5z M154 256q0 -114 83 -185t244 -71q210 0 369 133v399h-287q-120 0 -202 -19.5t-126 -58t-62.5 -86t-18.5 -112.5zM516 1147l143 287h31l-153 -287h-21z" />
<glyph unicode="&#xe2;" horiz-adv-x="1095" d="M133 256q0 72 23 125.5t61 85.5t95.5 52t116.5 27t134 7h287v164q0 153 -69 230t-238 77q-135 0 -318 -33v-172h-20v191q167 34 338 34q167 0 247 -74t80 -253v-697h164v-20h-184v102h-4q-92 -64 -176.5 -93t-188.5 -29q-72 0 -132.5 15.5t-110 47t-77.5 86t-28 127.5z M154 256q0 -114 83 -185t244 -71q210 0 369 133v399h-287q-120 0 -202 -19.5t-126 -58t-62.5 -86t-18.5 -112.5zM328 1147l207 287h34l209 -287h-20l-207 268l-203 -268h-20z" />
<glyph unicode="&#xe3;" horiz-adv-x="1095" d="M133 256q0 72 23 125.5t61 85.5t95.5 52t116.5 27t134 7h287v164q0 153 -69 230t-238 77q-135 0 -318 -33v-172h-20v191q167 34 338 34q167 0 247 -74t80 -253v-697h164v-20h-184v102h-4q-92 -64 -176.5 -93t-188.5 -29q-72 0 -132.5 15.5t-110 47t-77.5 86t-28 127.5z M154 256q0 -114 83 -185t244 -71q210 0 369 133v399h-287q-120 0 -202 -19.5t-126 -58t-62.5 -86t-18.5 -112.5zM246 1229q79 79 119.5 106t91.5 27q32 0 72 -22.5t71 -49t65.5 -49t57.5 -22.5q35 0 67 22.5t66 91.5l14 -8q-31 -61 -65.5 -94t-81.5 -33q-18 0 -41 10 q-24 11 -104.5 72t-118.5 61q-33 0 -51 -5t-53 -31.5t-97 -87.5z" />
<glyph unicode="&#xe4;" horiz-adv-x="1095" d="M133 256q0 72 23 125.5t61 85.5t95.5 52t116.5 27t134 7h287v164q0 153 -69 230t-238 77q-135 0 -318 -33v-172h-20v191q167 34 338 34q167 0 247 -74t80 -253v-697h164v-20h-184v102h-4q-92 -64 -176.5 -93t-188.5 -29q-72 0 -132.5 15.5t-110 47t-77.5 86t-28 127.5z M154 256q0 -114 83 -185t244 -71q210 0 369 133v399h-287q-120 0 -202 -19.5t-126 -58t-62.5 -86t-18.5 -112.5zM264 1229v205h21v-205h-21zM817 1229v205h21v-205h-21z" />
<glyph unicode="&#xe5;" horiz-adv-x="1095" d="M133 256q0 72 23 125.5t61 85.5t95.5 52t116.5 27t134 7h287v164q0 153 -69 230t-238 77q-135 0 -318 -33v-172h-20v191q167 34 338 34q167 0 247 -74t80 -253v-697h164v-20h-184v102h-4q-92 -64 -176.5 -93t-188.5 -29q-72 0 -132.5 15.5t-110 47t-77.5 86t-28 127.5z M154 256q0 -114 83 -185t244 -71q210 0 369 133v399h-287q-120 0 -202 -19.5t-126 -58t-62.5 -86t-18.5 -112.5zM387 1331q0 69 48.5 117.5t117.5 48.5t117.5 -48.5t48.5 -117.5t-48.5 -117.5t-117.5 -48.5t-117.5 48.5t-48.5 117.5zM406 1331q0 -63 42 -105t105 -42t105 42 t42 105t-42 105.5t-105 42.5t-105 -42.5t-42 -105.5z" />
<glyph unicode="&#xe6;" horiz-adv-x="1792" d="M133 256q0 161 107.5 229t337.5 68h272v164q0 153 -69 230t-238 77q-147 0 -318 -33v-172h-20v191q180 34 340 34q175 0 250 -76.5t75 -258.5q78 335 430 335q84 0 150 -21.5t106 -56.5t66.5 -81.5t36.5 -95t11 -98t-5 -89t-16 -70.5h-779q0 -124 23 -218t74.5 -166 t140 -110t213.5 -38q194 0 321 41l7 -21q-146 -40 -328 -40q-288 0 -397 194q-93 -102 -209.5 -148t-233.5 -46q-159 0 -253.5 71t-94.5 205zM154 256q0 -114 83 -185t244 -71q130 0 240.5 51.5t193.5 138.5q-65 122 -65 342h-287q-120 0 -202 -19.5t-126 -58t-62.5 -86 t-18.5 -112.5zM870 553h762q15 65 15.5 128t-18 126t-57 110.5t-108 77t-164.5 29.5q-400 0 -430 -471z" />
<glyph unicode="&#xe7;" d="M143 512q0 119 25 213.5t77 167t140.5 112t208.5 39.5q169 0 328 -40v-185h-21v168q-145 37 -307 37q-95 0 -170 -28t-123 -75t-79.5 -114t-44.5 -139.5t-13 -155.5t13 -155.5t44.5 -139.5t79.5 -114t123 -75t170 -28q167 0 321 41l7 -21q-159 -40 -328 -40v-103 q75 -2 123.5 -36.5t48.5 -106.5q0 -70 -48.5 -112t-131.5 -42q-47 0 -127 25l6 18q73 -22 127 -22q47 0 79.5 14.5t47.5 37.5t20.5 42.5t5.5 38.5q0 15 -3 29t-13.5 32.5t-28 31.5t-50.5 22t-77 8v123q-114 4 -198.5 44.5t-134.5 113t-73.5 165.5t-23.5 209z" />
<glyph unicode="&#xe8;" horiz-adv-x="1085" d="M143 512q0 119 25 213.5t77 167t140.5 112t208.5 39.5q98 0 171 -28.5t111.5 -75t61 -102t25 -115t-3 -107t-17.5 -84.5h-778q0 -121 22 -213.5t72 -166.5t139.5 -113t216.5 -39q195 0 322 41l6 -21q-146 -40 -328 -40q-127 0 -220 39.5t-147 112.5t-79 167t-25 213z M164 553h762q15 65 15.5 128t-18 126t-57 110.5t-108 77t-164.5 29.5q-400 0 -430 -471zM430 1434h31l143 -287h-20z" />
<glyph unicode="&#xe9;" horiz-adv-x="1085" d="M143 512q0 119 25 213.5t77 167t140.5 112t208.5 39.5q98 0 171 -28.5t111.5 -75t61 -102t25 -115t-3 -107t-17.5 -84.5h-778q0 -121 22 -213.5t72 -166.5t139.5 -113t216.5 -39q195 0 322 41l6 -21q-146 -40 -328 -40q-127 0 -220 39.5t-147 112.5t-79 167t-25 213z M164 553h762q15 65 15.5 128t-18 126t-57 110.5t-108 77t-164.5 29.5q-400 0 -430 -471zM598 1147l143 287h31l-154 -287h-20z" />
<glyph unicode="&#xea;" horiz-adv-x="1085" d="M143 512q0 119 25 213.5t77 167t140.5 112t208.5 39.5q98 0 171 -28.5t111.5 -75t61 -102t25 -115t-3 -107t-17.5 -84.5h-778q0 -121 22 -213.5t72 -166.5t139.5 -113t216.5 -39q195 0 322 41l6 -21q-146 -40 -328 -40q-127 0 -220 39.5t-147 112.5t-79 167t-25 213z M164 553h762q15 65 15.5 128t-18 126t-57 110.5t-108 77t-164.5 29.5q-400 0 -430 -471zM367 1147l206 287h35l209 -287h-20l-207 268l-203 -268h-20z" />
<glyph unicode="&#xeb;" horiz-adv-x="1085" d="M143 512q0 119 25 213.5t77 167t140.5 112t208.5 39.5q98 0 171 -28.5t111.5 -75t61 -102t25 -115t-3 -107t-17.5 -84.5h-778q0 -121 22 -213.5t72 -166.5t139.5 -113t216.5 -39q195 0 322 41l6 -21q-146 -40 -328 -40q-127 0 -220 39.5t-147 112.5t-79 167t-25 213z M164 553h762q15 65 15.5 128t-18 126t-57 110.5t-108 77t-164.5 29.5q-400 0 -430 -471zM295 1229v205h20v-205h-20zM848 1229v205h20v-205h-20z" />
<glyph unicode="&#xec;" horiz-adv-x="471" d="M51 1434h31l143 -287h-20zM61 0v20h164v984h-164v20h185v-1004h164v-20h-349z" />
<glyph unicode="&#xed;" horiz-adv-x="471" d="M61 0v20h164v984h-164v20h185v-1004h164v-20h-349zM227 1147l144 287h30l-153 -287h-21z" />
<glyph unicode="&#xee;" horiz-adv-x="471" d="M10 1147l207 287h35l209 -287h-21l-207 268l-202 -268h-21zM61 0v20h164v984h-164v20h185v-1004h164v-20h-349z" />
<glyph unicode="&#xef;" horiz-adv-x="471" d="M-51 1229v205h20v-205h-20zM61 0v20h164v984h-164v20h185v-1004h164v-20h-349zM502 1229v205h20v-205h-20z" />
<glyph unicode="&#xf0;" horiz-adv-x="1126" d="M143 451q0 230 110 355.5t310 125.5q118 0 220 -67.5t175 -184.5l5 2q-4 57 -7 90t-15.5 109.5t-29.5 132t-50 123t-77 116.5l-192 -192l-17 18l193 193q-124 121 -315 121q-126 0 -260 -41l-7 18q6 2 26 7.5t27 7.5t26.5 7t31 7t31.5 5.5t37.5 5t40.5 2.5t47 1 q202 0 329 -127l164 164l17 -16l-164 -164q184 -200 184 -656q0 -74 -4.5 -136t-17 -128.5t-32.5 -119t-54 -101t-78.5 -80t-108 -50.5t-141.5 -19q-172 0 -288 128t-116 343zM164 451q0 -107 32 -193.5t86 -142t123.5 -85.5t147.5 -30q73 0 132.5 18.5t102 50t74 79 t51.5 100.5t31.5 120t15.5 132t3 141q-71 120 -176 195t-222 75q-95 0 -168 -29.5t-116 -75t-70.5 -108.5t-37 -122.5t-9.5 -124.5z" />
<glyph unicode="&#xf1;" horiz-adv-x="1208" d="M61 0v20h164v984h-164v20h185v-164h4q215 184 426 184q155 0 231 -79.5t76 -247.5v-697h164v-20h-348v20h164v697q0 307 -287 307q-208 0 -430 -195v-809h164v-20h-349zM301 1229q79 79 119.5 106t91.5 27q32 0 72 -22.5t71 -49t65.5 -49t57.5 -22.5q35 0 67 22.5 t66 91.5l15 -8q-31 -61 -66 -94t-82 -33q-18 0 -41 10q-24 11 -104.5 72t-118.5 61q-33 0 -51 -5t-53 -31.5t-97 -87.5z" />
<glyph unicode="&#xf2;" horiz-adv-x="1126" d="M143 512q0 119 23 213.5t71.5 167t131 112t194.5 39.5t194.5 -39.5t131 -112t71.5 -167t23 -213.5t-23 -213.5t-71.5 -167t-131 -112t-194.5 -39.5t-194.5 39.5t-131 112t-71.5 167t-23 213.5zM164 512q0 -84 11.5 -156t40.5 -139t73.5 -114t114.5 -75t159 -28t159 28 t114.5 75t73.5 114t41 139t12 156t-12 156t-41 139t-73.5 114t-114.5 75t-159 28t-159 -28t-114.5 -75t-73.5 -114t-40.5 -139t-11.5 -156zM418 1434h31l143 -287h-21z" />
<glyph unicode="&#xf3;" horiz-adv-x="1126" d="M143 512q0 119 23 213.5t71.5 167t131 112t194.5 39.5t194.5 -39.5t131 -112t71.5 -167t23 -213.5t-23 -213.5t-71.5 -167t-131 -112t-194.5 -39.5t-194.5 39.5t-131 112t-71.5 167t-23 213.5zM164 512q0 -84 11.5 -156t40.5 -139t73.5 -114t114.5 -75t159 -28t159 28 t114.5 75t73.5 114t41 139t12 156t-12 156t-41 139t-73.5 114t-114.5 75t-159 28t-159 -28t-114.5 -75t-73.5 -114t-40.5 -139t-11.5 -156zM551 1147l143 287h31l-154 -287h-20z" />
<glyph unicode="&#xf4;" horiz-adv-x="1126" d="M143 512q0 119 23 213.5t71.5 167t131 112t194.5 39.5t194.5 -39.5t131 -112t71.5 -167t23 -213.5t-23 -213.5t-71.5 -167t-131 -112t-194.5 -39.5t-194.5 39.5t-131 112t-71.5 167t-23 213.5zM164 512q0 -84 11.5 -156t40.5 -139t73.5 -114t114.5 -75t159 -28t159 28 t114.5 75t73.5 114t41 139t12 156t-12 156t-41 139t-73.5 114t-114.5 75t-159 28t-159 -28t-114.5 -75t-73.5 -114t-40.5 -139t-11.5 -156zM338 1147l207 287h35l208 -287h-20l-207 268l-203 -268h-20z" />
<glyph unicode="&#xf5;" horiz-adv-x="1126" d="M143 512q0 119 23 213.5t71.5 167t131 112t194.5 39.5t194.5 -39.5t131 -112t71.5 -167t23 -213.5t-23 -213.5t-71.5 -167t-131 -112t-194.5 -39.5t-194.5 39.5t-131 112t-71.5 167t-23 213.5zM164 512q0 -84 11.5 -156t40.5 -139t73.5 -114t114.5 -75t159 -28t159 28 t114.5 75t73.5 114t41 139t12 156t-12 156t-41 139t-73.5 114t-114.5 75t-159 28t-159 -28t-114.5 -75t-73.5 -114t-40.5 -139t-11.5 -156zM252 1229q79 79 119.5 106t91.5 27q32 0 72 -22.5t71 -49t65.5 -49t57.5 -22.5q35 0 67 22.5t66 91.5l15 -8q-31 -61 -66 -94 t-82 -33q-18 0 -41 10q-24 11 -104.5 72t-118.5 61q-33 0 -51 -5t-53 -31.5t-97 -87.5z" />
<glyph unicode="&#xf6;" horiz-adv-x="1126" d="M143 512q0 119 23 213.5t71.5 167t131 112t194.5 39.5t194.5 -39.5t131 -112t71.5 -167t23 -213.5t-23 -213.5t-71.5 -167t-131 -112t-194.5 -39.5t-194.5 39.5t-131 112t-71.5 167t-23 213.5zM164 512q0 -84 11.5 -156t40.5 -139t73.5 -114t114.5 -75t159 -28t159 28 t114.5 75t73.5 114t41 139t12 156t-12 156t-41 139t-73.5 114t-114.5 75t-159 28t-159 -28t-114.5 -75t-73.5 -114t-40.5 -139t-11.5 -156zM276 1229v205h21v-205h-21zM829 1229v205h21v-205h-21z" />
<glyph unicode="&#xf7;" d="M164 532v21h696v-21h-696zM502 133v205h20v-205h-20zM502 748v204h20v-204h-20z" />
<glyph unicode="&#xf8;" horiz-adv-x="1126" d="M82 -31l147 172q-86 133 -86 371q0 119 23 213.5t71.5 167t131 112t194.5 39.5q212 0 318 -141l145 168l18 -14l-149 -174q88 -136 88 -371q0 -119 -23 -213.5t-71.5 -167t-131 -112t-194.5 -39.5q-211 0 -319 143l-144 -168zM164 512q0 -221 82 -352l620 725 q-104 139 -303 139q-89 0 -159 -28t-114.5 -75t-73.5 -114t-40.5 -139t-11.5 -156zM260 139q101 -139 303 -139q89 0 159 28t114.5 75t73.5 114t41 139t12 156q0 221 -82 352z" />
<glyph unicode="&#xf9;" horiz-adv-x="1208" d="M61 1004v20h185v-717q0 -307 286 -307q209 0 431 195v809h-226v20h246v-1004h164v-20h-184v164h-5q-215 -184 -426 -184q-155 0 -231 79.5t-76 247.5v697h-164zM428 1434h31l143 -287h-20z" />
<glyph unicode="&#xfa;" horiz-adv-x="1208" d="M61 1004v20h185v-717q0 -307 286 -307q209 0 431 195v809h-226v20h246v-1004h164v-20h-184v164h-5q-215 -184 -426 -184q-155 0 -231 79.5t-76 247.5v697h-164zM551 1147l143 287h31l-154 -287h-20z" />
<glyph unicode="&#xfb;" horiz-adv-x="1208" d="M61 1004v20h185v-717q0 -307 286 -307q209 0 431 195v809h-226v20h246v-1004h164v-20h-184v164h-5q-215 -184 -426 -184q-155 0 -231 79.5t-76 247.5v697h-164zM340 1147l207 287h35l209 -287h-21l-207 268l-203 -268h-20z" />
<glyph unicode="&#xfc;" horiz-adv-x="1208" d="M61 1004v20h185v-717q0 -307 286 -307q209 0 431 195v809h-226v20h246v-1004h164v-20h-184v164h-5q-215 -184 -426 -184q-155 0 -231 79.5t-76 247.5v697h-164zM276 1229v205h21v-205h-21zM829 1229v205h21v-205h-21z" />
<glyph unicode="&#xfd;" horiz-adv-x="1187" d="M61 1004v20h349v-20h-213l413 -996h4l377 996h-213v20h348v-20h-110l-424 -1117q-62 -163 -140 -240t-186 -77q-47 0 -92 10l4 21q51 -11 88 -11q38 0 72.5 11.5t60.5 28t51 45.5t41.5 53.5t35 62.5t28.5 61.5t25.5 63.5t21.5 55l-430 1033h-111zM590 1147l143 287h31 l-154 -287h-20z" />
<glyph unicode="&#xfe;" horiz-adv-x="1146" d="M61 -389h164v1802h-164v21h185v-512h4q68 56 164 89t200 33q105 0 181.5 -39.5t121.5 -112.5t66 -167t21 -213t-21 -213t-66 -167t-121.5 -112.5t-181.5 -39.5q-104 0 -200 33t-164 89h-4v-491h164v-21h-349v21zM246 133q59 -49 158.5 -91t209.5 -42q83 0 148 28t106 75 t67.5 114t37 139t10.5 156t-10.5 156t-37 139t-67.5 114t-106 75t-148 28q-110 0 -209.5 -42t-158.5 -91v-758z" />
<glyph unicode="&#xff;" horiz-adv-x="1187" d="M61 1004v20h349v-20h-213l413 -996h4l377 996h-213v20h348v-20h-110l-424 -1117q-62 -163 -140 -240t-186 -77q-47 0 -92 10l4 21q51 -11 88 -11q38 0 72.5 11.5t60.5 28t51 45.5t41.5 53.5t35 62.5t28.5 61.5t25.5 63.5t21.5 55l-430 1033h-111zM315 1229v205h21v-205 h-21zM868 1229v205h21v-205h-21z" />
<glyph unicode="&#x152;" horiz-adv-x="2150" d="M143 707q0 123 13 220t49 191t95 156.5t157 100.5t229 38q124 0 217.5 -32.5t154 -94t96 -138.5t54.5 -177v422h799v-205h-20v184h-758v-635h676v-20h-676v-697h758v185h20v-205h-799v434q-19 -105 -55.5 -184t-96.5 -142t-153.5 -95.5t-216.5 -32.5q-95 0 -172 20 t-133 55.5t-98 88.5t-68.5 113t-42.5 136t-22.5 151t-6.5 163zM164 707q0 -79 5 -146t19.5 -141.5t38.5 -133.5t64.5 -114t94 -91.5t130 -58.5t170.5 -22t170.5 22t130 59t94 93t64.5 116.5t38.5 137.5t19.5 148t5 155q0 76 -6 141t-21.5 134t-40 124.5t-65 105.5t-94 84 t-128.5 53.5t-167 19.5q-94 0 -170.5 -20.5t-130 -55.5t-94 -88t-64.5 -110t-38.5 -129t-19.5 -138t-5 -145z" />
<glyph unicode="&#x153;" horiz-adv-x="1904" d="M143 512q0 119 23 213.5t71.5 167t131 112t194.5 39.5q184 0 284 -102.5t126 -284.5q28 181 135.5 284t304.5 103q98 0 171 -28.5t111.5 -75t61 -102t25 -115t-3 -107t-17.5 -84.5h-778q0 -121 22 -213.5t72.5 -166.5t140 -113t216.5 -39q194 0 321 41l6 -21 q-146 -40 -327 -40q-209 0 -321 102.5t-140 284.5q-26 -182 -126 -284.5t-284 -102.5q-112 0 -194.5 39.5t-131 112t-71.5 167t-23 213.5zM164 512q0 -84 11.5 -156t40.5 -139t73.5 -114t114.5 -75t159 -28q87 0 156 26.5t114 73t75 112t42.5 139.5t12.5 161q0 84 -12 156 t-41 139t-73.5 114t-114.5 75t-159 28t-159 -28t-114.5 -75t-73.5 -114t-40.5 -139t-11.5 -156zM983 553h762q15 65 15.5 128t-18 126t-57 110.5t-108 77t-164.5 29.5q-400 0 -430 -471z" />
<glyph unicode="&#x178;" horiz-adv-x="1351" d="M61 1372v21h392v-21h-254l475 -850h4l473 850h-252v21h391v-21h-114l-490 -880v-472h164v-20h-348v20h164v472l-492 880h-113zM389 1577v205h21v-205h-21zM942 1577v205h21v-205h-21z" />
<glyph unicode="&#x2c6;" horiz-adv-x="860" d="M205 1147l207 287h34l209 -287h-20l-207 268l-203 -268h-20z" />
<glyph unicode="&#x2dc;" horiz-adv-x="921" d="M154 1229q79 79 119.5 106t91.5 27q32 0 72 -22.5t71 -49t65.5 -49t57.5 -22.5q35 0 67 22.5t66 91.5l14 -8q-31 -61 -65.5 -94t-81.5 -33q-18 0 -41 10q-24 11 -104.5 72t-118.5 61q-33 0 -51 -5t-53 -31.5t-97 -87.5z" />
<glyph unicode="&#x2000;" horiz-adv-x="922" />
<glyph unicode="&#x2001;" horiz-adv-x="1845" />
<glyph unicode="&#x2002;" horiz-adv-x="922" />
<glyph unicode="&#x2003;" horiz-adv-x="1845" />
<glyph unicode="&#x2004;" horiz-adv-x="615" />
<glyph unicode="&#x2005;" horiz-adv-x="461" />
<glyph unicode="&#x2006;" horiz-adv-x="307" />
<glyph unicode="&#x2007;" horiz-adv-x="307" />
<glyph unicode="&#x2008;" horiz-adv-x="230" />
<glyph unicode="&#x2009;" horiz-adv-x="369" />
<glyph unicode="&#x200a;" horiz-adv-x="102" />
<glyph unicode="&#x2010;" d="M164 532v21h696v-21h-696z" />
<glyph unicode="&#x2011;" d="M164 532v21h696v-21h-696z" />
<glyph unicode="&#x2012;" d="M164 532v21h696v-21h-696z" />
<glyph unicode="&#x2013;" horiz-adv-x="1228" d="M164 532v21h901v-21h-901z" />
<glyph unicode="&#x2014;" horiz-adv-x="1433" d="M164 532v21h1106v-21h-1106z" />
<glyph unicode="&#x2018;" horiz-adv-x="348" d="M164 922v204l20 267h21l-21 -267v-204h-20z" />
<glyph unicode="&#x2019;" horiz-adv-x="348" d="M143 922l21 266v205h20v-205l-20 -266h-21z" />
<glyph unicode="&#x201a;" horiz-adv-x="348" d="M143 -266l21 266v205h20v-205l-20 -266h-21z" />
<glyph unicode="&#x201c;" horiz-adv-x="798" d="M164 922v204l20 267h21l-21 -267v-204h-20zM614 922v204l21 267h20l-20 -267v-204h-21z" />
<glyph unicode="&#x201d;" horiz-adv-x="798" d="M143 922l21 266v205h20v-205l-20 -266h-21zM594 922l20 266v205h21v-205l-21 -266h-20z" />
<glyph unicode="&#x201e;" horiz-adv-x="798" d="M143 -266l21 266v205h20v-205l-20 -266h-21zM594 -266l20 266v205h21v-205l-21 -266h-20z" />
<glyph unicode="&#x2022;" horiz-adv-x="471" d="M164 410v204h20v-204h-20z" />
<glyph unicode="&#x2026;" horiz-adv-x="1249" d="M205 0v205h20v-205h-20zM614 0v205h21v-205h-21zM1024 0v205h20v-205h-20z" />
<glyph unicode="&#x202f;" horiz-adv-x="369" />
<glyph unicode="&#x2039;" horiz-adv-x="778" d="M164 502v20l450 277v-21l-430 -266l430 -266v-21z" />
<glyph unicode="&#x203a;" horiz-adv-x="778" d="M164 225v21l430 266l-430 266v21l450 -277v-20z" />
<glyph unicode="&#x205f;" horiz-adv-x="461" />
<glyph unicode="&#x20ac;" horiz-adv-x="1331" d="M82 543v20h147q-4 90 -4 144q0 81 4 122h-147v21h147q8 99 27.5 179t60 153.5t99 123t148 78.5t204.5 29q227 0 440 -61v-205h-20v188q-234 58 -420 58q-113 0 -200 -29.5t-143 -78.5t-94 -121t-56 -147t-25 -167h487l-10 -21h-477q-4 -41 -4 -122q0 -50 4 -144h487 l-10 -20h-475q8 -94 26.5 -170t56.5 -147.5t93.5 -119.5t142 -77t197.5 -29q199 0 420 57v189h20v-205q-213 -61 -440 -61q-113 0 -201.5 28t-147 76.5t-99 121.5t-60.5 154.5t-29 182.5h-149z" />
<glyph unicode="&#x2122;" horiz-adv-x="1638" d="M55 1249v144h566v-144h-21v123h-252v-663h123v-21h-266v21h123v663h-252v-123h-21zM723 688v21h123v663h-123v21h143l279 -672h4l291 672h143v-21h-123v-663h123v-21h-266v21h123v622h-4l-279 -643h-20l-267 643h-4v-622h123v-21h-266z" />
<glyph unicode="&#xe000;" d="M0 0v1024h1024v-1024h-1024z" />
</font>
</defs>
</svg>
